<svg id="icons" xmlns="http://www.w3.org/2000/svg" viewBox="0 0 340 340"><path d="M201.088,115.537s47.4,27.884,115.005,47.657c12.809,4.935,2.028,22.137-10.286,23.853C305.807,187.047,236.285,159.952,201.088,115.537Z" style="fill:#e58e6c"/><path d="M232.388,266.539a53.428,53.428,0,0,1-53.428,53.427c-70.725-2.444-70.706-104.42,0-106.854A53.428,53.428,0,0,1,232.388,266.539Z" style="fill:#ffd071"/><path d="M178.96,310.066a43.575,43.575,0,0,1-43.526-43.527c2.044-57.608,85.017-57.593,87.053,0A43.576,43.576,0,0,1,178.96,310.066Zm0-80.053a36.568,36.568,0,0,0-36.526,36.526c1.716,48.344,71.344,48.332,73.053,0A36.568,36.568,0,0,0,178.96,230.013Z" style="fill:#e89c52"/><path d="M322.122,198.146a8.948,8.948,0,0,0-5.391-10.584c-44.474-17.724-118.979-74.248-153.264-108.148A524.412,524.412,0,0,0,86.76,16.733C56.954,30.76,31.97,76.784,31.97,76.784c13.36,11.25,29.381,22.387,35.888,39.3,5.983,13.9,13.044,34.907,14.519,46.176,1.682,12.853,3.305,24.969,4.293,32.3a17.466,17.466,0,0,0,6.53,11.413c16.533,12.971,28.067,24.71,36.516,31.651,7.459,6.418,19.113,1.94,20.989-7.723,3.928-19.782-8.1-32.866-15.552-38.868-5.753-4.408-5.351-11.4-3.972-17.631a16.471,16.471,0,0,1,18.289-13.464,92.138,92.138,0,0,1,42.505,17.435,13.242,13.242,0,0,1,4.776,14.616,114.154,114.154,0,0,1-9.865,21.716,53.286,53.286,0,0,1,30.681,15.928A306.074,306.074,0,0,0,240.613,189C271.719,207.932,313.886,226.794,322.122,198.146Z" style="fill:#ffd5bd"/><path d="M47.564,235.777c-1.715,12.177-7.425,32.985-26.425,36.629a1.079,1.079,0,0,0-.331,2.006c6.79,3.7,22.2,14.679,26.089,39.7a1.079,1.079,0,0,0,2.125.057C51.378,302.812,58,284.091,76.38,277.7a1.079,1.079,0,0,0,.175-1.972c-6.028-3.195-21.348-13.7-26.865-40.023A1.079,1.079,0,0,0,47.564,235.777Z" style="fill:#ffd071"/><path d="M276.715,26.558c-2.152,11.377-8.572,32.852-26.76,38.121a1.076,1.076,0,0,0-.209,1.984c6.771,3.575,24.165,15.219,30.5,42.919a1.081,1.081,0,0,0,2.115-.051c2.086-11.222,8.345-34.415,25.24-42.6a1.076,1.076,0,0,0-.111-1.975c-6.64-2.42-23.214-11.086-28.648-38.393A1.081,1.081,0,0,0,276.715,26.558Z" style="fill:#ffd071"/><path d="M192.144,267.439c-2.836-3.251-7.158-4.9-12.847-4.9-4.6.13-8.239-1.765-7.733-6.131.184-1.438.9-6.869,8.305-6.981,5.634,0,7.166,2.206,7.564,3.155a4,4,0,0,0,5.234,2.146c6.128-3.215-.184-11.739-8.8-12.979v-3.155a4,4,0,0,0-8,0v3.218c-11.437,2.386-15.837,15.569-9.335,23.8,2.766,3.271,7.06,4.929,12.763,4.929,4.6-.156,8.439,1.867,8.05,6.252-.132,2-.388,6.312-8.471,6.865-5.555.25-7.007-2.086-7.377-3.1a4,4,0,0,0-5.125-2.4c-6.224,2.763-.494,12.131,8.686,13.3v3.025a4,4,0,0,0,8,0v-3.325C195.4,288.568,198.657,275.591,192.144,267.439Z" style="fill:#fff"/><path d="M321.422,177.606a4.02,4.02,0,0,1-3.76-5.367,3.908,3.908,0,0,0-.2-3.134,4.038,4.038,0,0,0-2.5-2.071,598.781,598.781,0,0,1-91.4-35.246A129.888,129.888,0,0,1,197.03,114.45c-4.023-3.312.785-9.481,4.988-6.253a122.386,122.386,0,0,0,25.038,16.391,590.57,590.57,0,0,0,90.16,34.767,12.105,12.105,0,0,1,7.966,15.615A4,4,0,0,1,321.422,177.606Z" style="fill:#383a49"/><path d="M178.96,323.966c-35.782.4-63.692-33.815-56.306-68.769,1.133-5.146,8.782-3.6,7.843,1.572a49.482,49.482,0,0,0,48.463,59.2c65.413-2.32,65.409-96.539,0-98.854a49.345,49.345,0,0,0-25.458,7.052c-4.54,2.647-8.587-4.075-4.126-6.854,37.069-23.205,87.805,5.415,87.012,49.23A57.49,57.49,0,0,1,178.96,323.966Z" style="fill:#383a49"/><path d="M137.823,244.626c-9.589-.186-14.179-7.527-21.713-13.7-6.755-6.148-15.164-13.8-25.379-21.813a21.355,21.355,0,0,1-8.026-14.025c-.988-7.334-2.612-19.457-4.294-32.314-1.419-10.852-8.349-31.46-14.227-45.115C57.963,101.444,42.078,90.608,29.4,79.853a4,4,0,0,1-.95-4.977c1.046-1.927,25.963-47.343,56.6-61.762,2.669-3.43,41.084,25.075,81.223,63.454,33.057,32.688,106.849,89.311,151.931,107.278a12.927,12.927,0,0,1,7.773,15.343c-1.976,7.31-9.824,23.461-39.92,15.592a307.637,307.637,0,0,1-33.526-14.169,4,4,0,0,1,3.612-7.138,315.59,315.59,0,0,0,32.1,13.61c16.936,4.387,27.033,1.03,30.01-9.982a4.928,4.928,0,0,0-3.012-5.824c-46.016-18.34-121.054-75.857-154.594-109.02A534.324,534.324,0,0,0,86.482,21.339C63.18,33.56,42.853,66.064,37.1,75.862,50.628,86.986,64.871,97.656,71.531,114.5c6.011,13.961,13.246,35.262,14.812,47.238,1.682,12.847,3.3,24.957,4.29,32.284a13.411,13.411,0,0,0,5.035,8.8c10.446,8.195,18.974,15.955,25.826,22.189,4.428,4,7.859,7.211,11.368,9.989,5.037,3.919,12.925.275,13.919-5.881,3.512-17.688-7.35-29.506-14.137-34.976a17,17,0,0,1-6.312-15.171c.285-13.4,9.643-24.751,23.666-23a95.6,95.6,0,0,1,44.371,18.195,17.237,17.237,0,0,1,6.19,19.044,113.072,113.072,0,0,1-7.525,17.653,57.768,57.768,0,0,1,23.843,12.571,304.762,304.762,0,0,0,20.089-36.082c.2-.467,5.095-12.362-9.178-22.493-.02-.138-28.365-21.647-28.418-21.779-4.116-3.235.638-9.493,4.868-6.35l28.243,21.65c15.754,11.222,14.6,26,11.779,32.26a307.045,307.045,0,0,1-23.381,41.232,4.028,4.028,0,0,1-6.2.523A49.576,49.576,0,0,0,186.3,217.657a4,4,0,0,1-2.862-5.978,109.707,109.707,0,0,0,9.507-20.916,9.238,9.238,0,0,0-3.36-10.19A87.58,87.58,0,0,0,148.943,163.9a12.442,12.442,0,0,0-13.826,10.213c-.921,4.645-1.965,10.491,2.547,13.8,8.2,6.605,21.3,20.943,16.965,42.762A17.326,17.326,0,0,1,137.823,244.626Z" style="fill:#383a49"/><path d="M47.747,327.267a4,4,0,0,1-4-3.862c-1.266-36.51-26.5-46.379-27.571-46.782-3.953-1.409-3.118-7.5,1.1-7.741C43.916,266.962,44.3,227.3,44.3,226.9c.052-4.944,7.377-5.406,7.977-.431,4.079,37.256,27.159,46.294,28.139,46.661a4,4,0,0,1-.351,7.619c-26.481,7.054-28.307,42.332-28.322,42.687A4,4,0,0,1,47.747,327.267Zm-19.5-52.889A55.421,55.421,0,0,1,48.21,302.329c3.576-9.6,10-20.163,21.516-26.124-6.373-4.536-15.126-13.1-20.689-28.191C45.657,258.9,39.279,269.606,28.249,274.378Z" style="fill:#383a49"/><path d="M281.421,119.763a4,4,0,0,1-3.951-3.387C271.782,79.57,246.645,69.52,245.578,69.11c-3.717-1.348-3.218-7.042.712-7.677,24.389-4.387,27.425-41.938,27.454-42.317.372-4.754,7.388-4.949,7.963-.16,4.223,37.3,28.336,42.706,29.361,42.918,3.867.721,4.33,6.386.585,7.679-22.339,8.159-26.211,46.205-26.247,46.588A4,4,0,0,1,281.421,119.763Zm-24.6-53.5c7.347,5.034,17.785,14.73,24.156,31.781,3.193-10.788,9.107-24.012,19.828-31.7-7.185-3.876-17.091-11.912-22.914-28.11C274.525,48.536,268.285,60.418,256.822,66.261Z" style="fill:#383a49"/></svg>